<?xml version="1.0" standalone="no"?>
<!DOCTYPE svg PUBLIC "-//W3C//DTD SVG 20010904//EN"
 "http://www.w3.org/TR/2001/REC-SVG-20010904/DTD/svg10.dtd">
<svg version="1.0" xmlns="http://www.w3.org/2000/svg"
 width="1200.000000pt" height="1200.000000pt" viewBox="0 0 1200.000000 1200.000000"
 preserveAspectRatio="xMidYMid meet">

<g transform="translate(0.000000,1200.000000) scale(0.100000,-0.100000)"
fill="#000000" stroke="none">
<path d="M8203 10645 c-364 -49 -767 -224 -1060 -460 -84 -68 -247 -229 -314
-312 -211 -257 -363 -565 -438 -886 -45 -192 -54 -277 -56 -505 l-1 -212
-2161 -2163 c-1188 -1189 -2183 -2193 -2211 -2230 -84 -113 -176 -312 -218
-472 -37 -139 -37 -142 -37 -340 -1 -197 0 -202 35 -335 76 -289 194 -486 417
-698 68 -65 208 -160 311 -212 370 -186 855 -187 1225 -3 220 110 80 -24 2431
2325 l2170 2169 230 3 c301 4 440 27 694 112 445 150 836 452 1107 854 354
524 456 1214 271 1834 -36 122 -65 161 -123 172 -91 17 -54 48 -790 -686
l-680 -678 -100 28 c-121 34 -435 119 -700 188 l-70 19 -18 64 c-31 113 -169
631 -190 717 l-21 83 668 667 c367 368 672 675 677 683 25 39 4 133 -38 171
-21 19 -194 68 -328 93 -123 23 -539 29 -682 10z m482 -265 c54 -6 114 -13
133 -16 l34 -7 -615 -616 c-533 -533 -617 -621 -622 -652 -5 -26 3 -71 25
-155 17 -65 47 -175 65 -244 18 -69 50 -186 70 -260 21 -74 45 -166 55 -205
42 -169 71 -250 98 -277 32 -32 101 -54 557 -173 101 -26 182 -48 398 -107
234 -63 138 -129 869 600 552 551 617 613 623 591 20 -85 35 -246 35 -381 0
-957 -725 -1769 -1680 -1879 -70 -8 -177 -10 -320 -6 l-215 7 -2190 -2189
c-1229 -1228 -2221 -2211 -2260 -2241 -75 -55 -212 -126 -310 -160 -206 -71
-519 -66 -730 12 -319 117 -562 366 -669 688 -109 329 -62 675 132 975 35 54
531 557 2237 2265 1206 1207 2198 2205 2204 2216 7 15 9 89 5 230 -7 240 6
373 56 565 234 905 1092 1509 2015 1419z"/>
<path d="M3020 3824 c-249 -26 -468 -168 -594 -387 -89 -154 -119 -369 -76
-542 69 -284 272 -493 549 -567 99 -26 277 -29 371 -5 210 54 407 212 501 402
59 122 74 189 74 340 0 150 -22 243 -81 356 -96 183 -290 334 -490 383 -63 15
-196 26 -254 20z m179 -289 c220 -52 371 -243 371 -470 0 -132 -41 -233 -132
-331 -294 -314 -829 -104 -830 326 0 142 48 255 150 352 124 118 278 161 441
123z"/>
</g>
</svg>
